<svg xmlns="http://www.w3.org/2000/svg" viewBox="0 0 634.32 200.64"><defs><style>.cls-1{fill:#007bff;}.cls-2{fill:#1f2532;}</style></defs><title>logo-peef-blue</title><g id="Calque_2" data-name="Calque 2"><g id="Calque_3" data-name="Calque 3"><path class="cls-1" d="M222.85,74.3c-7.06,38.55-34.06,63.81-77.09,64.85H91.92l0,0L29.62,194.75h0l-3.36,3h0A16.83,16.83,0,0,1,0,183.82a17.56,17.56,0,0,1,.17-2.42L1,178.19l9.63-39L43,7.39l.23-.93a9.16,9.16,0,0,1,8-6.46H159.9C206.49,0,230.89,30.21,222.85,74.3Z"/><path class="cls-2" d="M251.68,135.58l25-122.73h46.13c11.62,0,21.13,3.52,28.35,10.57,7.22,6.87,10.92,15.85,10.92,26.76,0,12-4.4,22.54-13.38,31.87S328.81,96,315.6,96H287.08L279,135.58ZM292,71.31h24.83a16.64,16.64,0,0,0,12.85-5.81,19.23,19.23,0,0,0,5.46-13.38c0-8.45-6.16-14.61-15.32-14.61h-21Z"/><path class="cls-2" d="M372.66,60.57C382.87,50,395.37,44.72,410.34,44.72c12.5,0,22.71,3.7,30.29,11.09,7.57,7.22,11.45,16.55,11.45,28a42.52,42.52,0,0,1-2.64,14.44H383.75a3.44,3.44,0,0,0-.18,1.41c0,9.69,8.63,15.85,22,15.85a64.41,64.41,0,0,0,30.11-7.22l-5.28,23.24q-11.89,6.34-29.05,6.34c-13.38,0-24.12-3.7-32-11.09s-12-17.08-12-29.23Q357.34,76.42,372.66,60.57Zm54.23,20.6v-.88c0-7.92-7-13.73-17.61-13.73-9.16,0-19.37,4.58-23.42,14.61Z"/><path class="cls-2" d="M474.26,60.57C484.47,50,497,44.72,511.94,44.72c12.5,0,22.71,3.7,30.29,11.09,7.57,7.22,11.45,16.55,11.45,28A42.52,42.52,0,0,1,551,98.25H485.35a3.44,3.44,0,0,0-.18,1.41c0,9.69,8.63,15.85,22,15.85a64.41,64.41,0,0,0,30.11-7.22L532,131.53q-11.89,6.34-29.05,6.34c-13.38,0-24.12-3.7-32-11.09s-12-17.08-12-29.23Q458.94,76.42,474.26,60.57Zm54.23,20.6v-.88c0-7.92-7-13.73-17.61-13.73-9.16,0-19.37,4.58-23.42,14.61Z"/><path class="cls-2" d="M563.89,135.58l13.21-64.8H562.48l4.93-23.95H582l2.47-11.09C588,19,601.92,10.39,620.41,10.39A51.27,51.27,0,0,1,634.32,12L630.1,33.28a33.07,33.07,0,0,0-9-1.06c-7.75,0-11.27,2.47-12.85,10l-.88,4.58h17.78l-4.93,23.95h-16.9l-13.21,64.8Z"/></g></g></svg>
